<?xml version="1.0" encoding="utf-8"?>
<!-- Generator: Adobe Illustrator 23.0.2, SVG Export Plug-In . SVG Version: 6.00 Build 0)  -->
<svg version="1.1" id="Camada_1" xmlns="http://www.w3.org/2000/svg" xmlns:xlink="http://www.w3.org/1999/xlink" x="0px" y="0px"
	 viewBox="0 0 150 48" style="enable-background:new 0 0 150 48;" xml:space="preserve">
<style type="text/css">
	.st0{fill:#7259C1;}
</style>
<title>Group 4</title>
<desc>Created with Sketch.</desc>
<g id="Web">
	<g id="Mapa" transform="translate(-113.000000, -213.000000)">
		<g id="Group-7" transform="translate(30.000000, 213.000000)">
			<g id="Group-4" transform="translate(83.000000, 0.000000)">
				<g id="Group-2">
					<path id="C" class="st0" d="M110.8,23.6l-4.4,0.8c-0.4-1.9-1.5-2.8-3.4-2.8c-2.6,0-4.1,2-4.1,5.4c0,3.4,1.6,5.4,4.2,5.4
						c1.2,0,2.2-0.5,2.8-1.3c0.4-0.5,0.5-0.9,0.6-1.8L111,30c-0.4,1.8-0.9,2.8-1.8,3.8c-1.3,1.5-3.4,2.3-6,2.3
						c-2.6,0-4.8-0.8-6.3-2.3c-1.6-1.6-2.5-4-2.5-6.8c0-2.8,0.9-5.2,2.6-6.8c1.5-1.4,3.6-2.2,6.1-2.2c2.7,0,4.9,0.9,6.3,2.7
						C110.1,21.6,110.5,22.3,110.8,23.6z"/>
					<path class="st0" d="M149.8,23.6l-4.4,0.8c-0.4-1.9-1.5-2.8-3.4-2.8c-2.6,0-4.1,2-4.1,5.4c0,3.4,1.6,5.4,4.2,5.4
						c1.2,0,2.2-0.5,2.8-1.3c0.4-0.5,0.5-0.9,0.6-1.8L150,30c-0.4,1.8-0.9,2.8-1.8,3.8c-1.3,1.5-3.4,2.3-6,2.3
						c-2.6,0-4.8-0.8-6.3-2.3c-1.6-1.6-2.5-4-2.5-6.8c0-2.8,0.9-5.2,2.6-6.8c1.5-1.4,3.6-2.2,6.1-2.2c2.7,0,4.9,0.9,6.3,2.7
						C149.1,21.6,149.5,22.3,149.8,23.6z"/>
					<g id="airbnb">
						<path id="Shape" class="st0" d="M80.6,12.4c0,1.7-1.4,3.1-3.1,3.1s-3.1-1.4-3.1-3.1s1.3-3.1,3.1-3.1
							C79.3,9.4,80.6,10.8,80.6,12.4L80.6,12.4z M67.9,18.6v0.8c0,0-1.5-1.9-4.6-1.9c-5.2,0-9.2,3.9-9.2,9.4c0,5.4,4,9.4,9.2,9.4
							c3.2,0,4.6-2,4.6-2v0.8c0,0.4,0.3,0.7,0.7,0.7h3.9V18h-3.9C68.2,18,67.9,18.3,67.9,18.6L67.9,18.6z M67.9,30.1
							c-0.7,1-2.1,2-3.9,2c-3,0-5.4-1.9-5.4-5.1c0-3.2,2.3-5.1,5.4-5.1c1.7,0,3.2,1,3.9,2V30.1z M75.2,18h4.6v17.9h-4.6V18L75.2,18z
							 M130.4,25.3v10.7h-4.6V25.8c0-2.9-1-4.1-3.5-4.1c-1.4,0-2.8,0.7-3.7,1.8v12.5H114V18h3.6c0.4,0,0.7,0.3,0.7,0.7v0.8
							c1.3-1.4,3.1-1.9,4.9-1.9c2,0,3.7,0.6,5,1.7C129.8,20.6,130.4,22.3,130.4,25.3L130.4,25.3z M91.3,17.5c1.4,0,2.1,0.2,2.1,0.2
							V22c0,0-3.8-1.3-6.2,1.4v12.5h-4.6V18h3.9c0.4,0,0.7,0.3,0.7,0.7v0.8C88,18.4,89.9,17.5,91.3,17.5L91.3,17.5z M43.9,34.3
							c-0.2-0.6-0.5-1.2-0.7-1.7c-0.4-0.9-0.8-1.7-1.1-2.4l0,0c-3.3-7.1-6.8-14.4-10.5-21.5l-0.1-0.3C31,7.5,30.6,6.8,30.2,6
							c-0.5-0.9-1-1.8-1.7-2.6c-1.5-1.9-3.7-2.9-6-2.9c-2.4,0-4.5,1-6.1,2.9c-0.7,0.9-1.2,1.8-1.7,2.6c-0.4,0.7-0.8,1.5-1.1,2.2
							l-0.1,0.3C9.7,15.6,6.2,22.8,2.9,30l0,0.1c-0.3,0.8-0.7,1.6-1.1,2.4C1.5,33,1.3,33.6,1,34.2c-0.6,1.8-0.8,3.4-0.6,5.1
							c0.5,3.6,2.9,6.6,6.2,7.9c1.2,0.5,2.5,0.8,3.9,0.8c0.4,0,0.9,0,1.2-0.1c1.6-0.2,3.2-0.7,4.8-1.6c2-1.1,3.8-2.7,5.9-4.9
							c2.1,2.3,4,3.9,5.9,4.9c1.6,0.9,3.2,1.4,4.8,1.6c0.4,0,0.9,0.1,1.2,0.1c1.3,0,2.7-0.2,3.9-0.8c3.3-1.3,5.7-4.4,6.2-7.9
							C44.7,37.7,44.5,36,43.9,34.3L43.9,34.3z M22.4,36.7c-2.6-3.2-4.2-6.3-4.8-8.8c-0.2-1.1-0.3-2-0.1-2.9c0.1-0.8,0.4-1.4,0.8-2
							c0.9-1.3,2.4-2.1,4.2-2.1c1.8,0,3.3,0.8,4.2,2.1c0.4,0.6,0.7,1.2,0.8,2c0.1,0.9,0.1,1.9-0.1,2.9C26.7,30.4,25,33.4,22.4,36.7z
							 M41.4,39c-0.3,2.5-2,4.6-4.3,5.6C36,45,34.7,45.1,33.5,45c-1.2-0.1-2.4-0.5-3.6-1.2c-1.7-1-3.4-2.4-5.4-4.6
							c3.1-3.9,5-7.4,5.8-10.5c0.3-1.5,0.4-2.8,0.2-4c-0.2-1.2-0.6-2.3-1.3-3.2c-1.5-2.1-3.9-3.4-6.7-3.4s-5.2,1.3-6.7,3.4
							c-0.7,1-1.1,2-1.3,3.2c-0.2,1.2-0.1,2.6,0.2,4c0.7,3.1,2.7,6.7,5.8,10.6c-2,2.2-3.7,3.7-5.4,4.6c-1.2,0.7-2.4,1.1-3.6,1.2
							c-1.3,0.1-2.5,0-3.6-0.5c-2.3-1-4-3.1-4.3-5.6c-0.1-1.2,0-2.4,0.4-3.7c0.1-0.5,0.4-1,0.6-1.5c0.3-0.8,0.7-1.6,1.1-2.4l0-0.1
							C8.9,24.2,12.5,17,16.1,9.9l0.1-0.3c0.4-0.7,0.8-1.5,1.1-2.2c0.4-0.8,0.8-1.5,1.3-2.1c1-1.1,2.3-1.8,3.8-1.8
							c1.5,0,2.8,0.6,3.8,1.8c0.5,0.6,1,1.3,1.3,2.1c0.4,0.7,0.8,1.5,1.1,2.2L29,9.9C32.6,17,36,24.1,39.4,31.4v0
							c0.4,0.8,0.7,1.6,1.1,2.4c0.2,0.6,0.5,1,0.6,1.5C41.5,36.5,41.6,37.7,41.4,39L41.4,39z"/>
					</g>
				</g>
			</g>
		</g>
	</g>
</g>
</svg>
